# xmcd CD database file
#
# Track frame offsets:
#	150
#	23354
#	49458
#	71900
#	93803
#	119235
#	142094
#	160204
#	187466
#	212097
#	231561
#
# Disc length: 3399 seconds
#
# Revision: 0
# Processed by: cddbd v1.5.1PL0 Copyright (c) Steve Scherf et al.
# Submitted via: CDex 1.50beta10
#
DISCID=af0d450b
DTITLE=Wayne Gorbea - La Salsa
DYEAR=1997
DGENRE=Salsa
TTITLE0=Mejorando La Vida
TTITLE1=Los Rumberos
TTITLE2=Para Salseros
TTITLE3=Estamos En Salsa
TTITLE4=Dejame Un Lado
TTITLE5=Charanguiri
TTITLE6=Elena
TTITLE7=Yo Soy De Alla
TTITLE8=Para La Rumba
TTITLE9=Un Duelo
TTITLE10=Contigo No
EXTD=YEAR: 1997
EXTT0=
EXTT1=
EXTT2=
EXTT3=
EXTT4=
EXTT5=
EXTT6=
EXTT7=
EXTT8=
EXTT9=
EXTT10=
PLAYORDER=
